<svg id="Layer_1" enable-background="new 0 0 511.984 511.984" height="512" viewBox="0 0 511.984 511.984" width="512" xmlns="http://www.w3.org/2000/svg"><g><path d="m437.006 74.979c-48.351-48.351-112.636-74.979-181.014-74.979s-132.663 26.628-181.013 74.979-74.979 112.635-74.979 181.013 26.628 132.663 74.979 181.014 112.636 74.979 181.014 74.979 132.663-26.628 181.014-74.979 74.979-112.636 74.979-181.014-26.63-132.663-74.98-181.013zm-21.213 340.814c-42.685 42.685-99.436 66.191-159.801 66.191s-117.116-23.507-159.801-66.191c-42.684-42.685-66.191-99.436-66.191-159.801s23.507-117.116 66.191-159.801c42.685-42.684 99.436-66.191 159.801-66.191s117.116 23.507 159.801 66.191c42.684 42.685 66.191 99.436 66.191 159.801s-23.507 117.116-66.191 159.801z"/><path d="m256 283.957c-71.033 0-128.822 50.549-128.822 112.683 0 4.623 2.132 8.988 5.779 11.831 3.646 2.842 8.4 3.843 12.883 2.715 72.067-18.145 148.253-18.145 220.321 0 1.21.305 2.439.454 3.662.454 3.307 0 6.56-1.094 9.222-3.169 3.646-2.843 5.779-7.208 5.779-11.831-.001-62.134-57.791-112.683-128.824-112.683zm0 83.623c-32.222 0-64.443 3.215-96.071 9.645 10.466-36.256 49.569-63.268 96.071-63.268 26.821 0 51.936 8.876 70.716 24.993 12.586 10.802 21.245 23.981 25.362 38.275-31.627-6.429-63.855-9.645-96.078-9.645z"/><path d="m167.365 133.928c13.139-8.877 22.035-22.339 25.048-37.906 1.575-8.133-3.742-16.003-11.875-17.577-8.13-1.576-16.003 3.741-17.578 11.876-1.491 7.699-5.891 14.358-12.39 18.749-6.5 4.392-14.321 5.988-22.019 4.497-8.131-1.574-16.003 3.742-17.578 11.875-1.575 8.134 3.742 16.003 11.875 17.578 3.802.736 7.618 1.1 11.407 1.1 11.725-.001 23.181-3.483 33.11-10.192z"/><path d="m389.246 113.566c-7.701 1.491-15.52-.106-22.019-4.497s-10.899-11.05-12.39-18.749c-1.575-8.134-9.446-13.452-17.578-11.876-8.133 1.574-13.45 9.444-11.875 17.577 3.014 15.567 11.909 29.029 25.048 37.906 9.93 6.709 21.384 10.191 33.108 10.191 3.788 0 7.606-.363 11.407-1.1 8.133-1.575 13.45-9.444 11.875-17.578-1.573-8.131-9.446-13.45-17.576-11.874z"/><path d="m290.615 233.871 65.644 37.899c2.362 1.364 4.941 2.013 7.486 2.013 5.184-.001 10.227-2.691 13.004-7.503 4.142-7.175 1.684-16.349-5.49-20.49l-43.143-24.909 43.143-24.908c7.174-4.142 9.632-13.315 5.49-20.49-4.142-7.174-13.314-9.634-20.49-5.49l-65.644 37.898c-4.641 2.68-7.5 7.631-7.5 12.99s2.859 10.31 7.5 12.99z"/><path d="m135.251 175.482c-4.142 7.175-1.684 16.349 5.49 20.49l43.143 24.908-43.143 24.909c-7.174 4.142-9.632 13.316-5.49 20.49 2.778 4.812 7.82 7.503 13.004 7.503 2.544 0 5.124-.648 7.486-2.013l65.643-37.899c4.641-2.68 7.5-7.632 7.5-12.99 0-5.359-2.859-10.311-7.5-12.99l-65.643-37.898c-7.175-4.144-16.348-1.683-20.49 5.49z"/></g></svg>
