<?xml version="1.0"?>
<svg xmlns="http://www.w3.org/2000/svg" id="Layer_1" data-name="Layer 1" viewBox="0 0 48 48" width="512" height="512"><path d="M38,8.35V3a1,1,0,0,0-2,0V15a1,1,0,0,0,2,0V11.16A19,19,0,1,1,28,5.43V13a1,1,0,0,0,2,0V3a1,1,0,0,0-2,0v.38A21.35,21.35,0,0,0,24,3,21,21,0,1,0,38,8.35Z"/><path d="M21,20a1,1,0,0,0-2,0c0,1.36-1.12,3-2.5,3S14,21.36,14,20a1,1,0,0,0-2,0c0,2.36,1.92,5,4.5,5S21,22.36,21,20Z"/><path d="M28,19a1,1,0,0,0-1,1c0,2.36,1.92,5,4.5,5S36,22.36,36,20a1,1,0,0,0-2,0c0,1.36-1.12,3-2.5,3S29,21.36,29,20A1,1,0,0,0,28,19Z"/><path d="M14.68,37A1,1,0,0,0,16,36.32,8.34,8.34,0,0,1,24,31a8.34,8.34,0,0,1,8,5.32A1,1,0,0,0,33,37a1.25,1.25,0,0,0,.32,0A1,1,0,0,0,34,35.68,10.5,10.5,0,0,0,24,29a10.5,10.5,0,0,0-9.95,6.68A1,1,0,0,0,14.68,37Z"/><path d="M33,14a1,1,0,0,0,1-1V2a1,1,0,0,0-2,0V13A1,1,0,0,0,33,14Z"/></svg>
